<svg data-v-423bf9ae="" xmlns="http://www.w3.org/2000/svg" viewBox="0 0 429 90" class="iconLeft"><!----><!----><!----><g data-v-423bf9ae="" id="15539beb-cc3f-47ff-ae7d-3363bd010993" fill="#FFFFFF" transform="matrix(6.1412484328310715,0,0,6.1412484328310715,159.67112440779385,-1.5199591125577925)"><path d="M0.10 12.29L3.82 2.69L5.52 2.69L9.24 12.29L7.83 12.29L6.86 9.73L2.41 9.73L1.47 12.29L0.10 12.29ZM2.84 8.57L6.43 8.57L5.31 5.57L4.66 3.84L4.59 3.84L3.96 5.54L2.84 8.57ZM12.53 12.46L12.53 12.46Q11.42 12.46 10.83 11.87L10.83 11.87L10.83 11.87Q10.23 11.27 10.23 9.95L10.23 9.95L10.23 4.93L11.47 4.93L11.47 9.87L11.47 9.87Q11.47 10.75 11.86 11.09L11.86 11.09L11.86 11.09Q12.25 11.44 12.99 11.44L12.99 11.44L12.99 11.44Q13.52 11.44 13.97 11.18L13.97 11.18L13.97 11.18Q14.42 10.92 14.69 10.43L14.69 10.43L14.69 10.43Q14.95 9.94 14.95 9.28L14.95 9.28L14.95 4.93L16.18 4.93L16.18 12.29L15.25 12.29L15.11 11.30L15.01 11.30L15.01 11.30Q14.20 12.46 12.53 12.46L12.53 12.46ZM18.06 12.29L18.06 4.93L19.00 4.93L19.14 6.03L19.22 6.03L19.22 6.03Q19.43 5.49 19.85 5.12L19.85 5.12L19.85 5.12Q20.27 4.76 20.96 4.76L20.96 4.76L20.96 4.76Q21.20 4.76 21.38 4.81L21.38 4.81L21.38 4.81Q21.57 4.86 21.62 4.87L21.62 4.87L21.62 6.06L21.10 6.06L21.10 6.06Q20.31 6.06 19.80 6.52L19.80 6.52L19.80 6.52Q19.29 6.97 19.29 7.94L19.29 7.94L19.29 12.29L18.06 12.29ZM25.84 12.46L25.84 12.46Q24.07 12.46 23.20 11.52L23.20 11.52L23.20 11.52Q22.33 10.58 22.33 8.61L22.33 8.61L22.33 8.61Q22.33 6.64 23.20 5.70L23.20 5.70L23.20 5.70Q24.07 4.76 25.84 4.76L25.84 4.76L25.84 4.76Q27.44 4.76 28.23 5.61L28.23 5.61L28.23 5.61Q29.02 6.45 29.02 8.33L29.02 8.33L29.02 8.95L23.60 8.95L23.60 8.95Q23.67 10.22 24.21 10.83L24.21 10.83L24.21 10.83Q24.75 11.44 25.84 11.44L25.84 11.44L25.84 11.44Q26.73 11.44 27.27 11.03L27.27 11.03L27.27 11.03Q27.82 10.63 27.82 9.79L27.82 9.79L29.02 9.79L29.02 9.79Q29.02 11.07 28.13 11.77L28.13 11.77L28.13 11.77Q27.24 12.46 25.84 12.46L25.84 12.46ZM23.63 7.92L27.73 7.92L27.73 7.92Q27.73 5.78 25.84 5.78L25.84 5.78L25.84 5.78Q24.79 5.78 24.27 6.29L24.27 6.29L24.27 6.29Q23.74 6.79 23.63 7.92L23.63 7.92ZM32.76 12.46L32.76 12.46Q31.65 12.46 31.06 11.87L31.06 11.87L31.06 11.87Q30.46 11.27 30.46 9.95L30.46 9.95L30.46 4.93L31.70 4.93L31.70 9.87L31.70 9.87Q31.70 10.75 32.09 11.09L32.09 11.09L32.09 11.09Q32.48 11.44 33.22 11.44L33.22 11.44L33.22 11.44Q33.75 11.44 34.20 11.18L34.20 11.18L34.20 11.18Q34.65 10.92 34.92 10.43L34.92 10.43L34.92 10.43Q35.18 9.94 35.18 9.28L35.18 9.28L35.18 4.93L36.41 4.93L36.41 12.29L35.48 12.29L35.34 11.30L35.24 11.30L35.24 11.30Q34.43 12.46 32.76 12.46L32.76 12.46ZM40.81 12.46L40.81 12.46Q39.79 12.46 39.11 12.16L39.11 12.16L39.11 12.16Q38.43 11.86 38.11 11.37L38.11 11.37L38.11 11.37Q37.79 10.88 37.79 10.30L37.79 10.30L37.79 10.30Q37.79 10.14 37.79 10.07L37.79 10.07L37.79 10.07Q37.80 10.01 37.80 10.00L37.80 10.00L39.02 10.00L39.02 10.14L39.02 10.14Q39.02 10.79 39.54 11.12L39.54 11.12L39.54 11.12Q40.05 11.45 40.88 11.45L40.88 11.45L40.88 11.45Q41.59 11.45 42.06 11.16L42.06 11.16L42.06 11.16Q42.53 10.88 42.53 10.36L42.53 10.36L42.53 10.36Q42.53 9.95 42.27 9.70L42.27 9.70L42.27 9.70Q42 9.44 41.61 9.29L41.61 9.29L41.61 9.29Q41.22 9.14 40.54 8.97L40.54 8.97L40.54 8.97Q39.73 8.76 39.22 8.55L39.22 8.55L39.22 8.55Q38.71 8.34 38.35 7.93L38.35 7.93L38.35 7.93Q38.00 7.52 38.00 6.86L38.00 6.86L38.00 6.86Q38.00 5.89 38.79 5.33L38.79 5.33L38.79 5.33Q39.58 4.76 40.92 4.76L40.92 4.76L40.92 4.76Q41.76 4.76 42.38 5.03L42.38 5.03L42.38 5.03Q42.99 5.31 43.31 5.76L43.31 5.76L43.31 5.76Q43.62 6.22 43.62 6.78L43.62 6.78L43.61 7.04L42.41 7.04L42.41 6.92L42.41 6.92Q42.41 6.43 42.02 6.10L42.02 6.10L42.02 6.10Q41.64 5.78 40.78 5.78L40.78 5.78L40.78 5.78Q39.94 5.78 39.61 6.08L39.61 6.08L39.61 6.08Q39.27 6.38 39.27 6.78L39.27 6.78L39.27 6.78Q39.27 7.10 39.51 7.31L39.51 7.31L39.51 7.31Q39.75 7.52 40.10 7.64L40.10 7.64L40.10 7.64Q40.45 7.77 41.08 7.92L41.08 7.92L41.08 7.92Q41.94 8.15 42.49 8.37L42.49 8.37L42.49 8.37Q43.04 8.58 43.42 9.02L43.42 9.02L43.42 9.02Q43.81 9.46 43.81 10.19L43.81 10.19L43.81 10.19Q43.81 11.33 42.99 11.89L42.99 11.89L42.99 11.89Q42.17 12.46 40.81 12.46L40.81 12.46Z"></path></g><!----><g data-v-423bf9ae="" id="67e7cb39-d9c6-4afd-872a-c0c768237b4e" transform="matrix(1.4909055429198013,0,0,1.4909055429198013,-3.592272694769534,-28.72827486688861)" stroke="none" fill="#EB4C00"><path d="M34.318 69.084L5.173 54.513l-2.22 1.108 31.365 15.683 62.729-31.365-2.22-1.11z"></path><path d="M34.318 73.523L5.173 58.952l-2.22 1.109 31.365 15.682 62.729-31.364-2.22-1.11z"></path><path d="M34.318 77.963L5.173 63.392l-2.22 1.109 31.365 15.682 62.729-31.365-2.22-1.111z"></path><path d="M65.683 19.817L2.953 51.182l31.365 15.682L97.047 35.5 65.683 19.817zM57.84 47.262c-4.327 2.165-11.349 2.165-15.68 0-4.332-2.166-4.332-5.677 0-7.842 4.329-2.164 11.351-2.164 15.68 0 4.332 2.165 4.332 5.676 0 7.842z"></path></g><!----></svg>